<svg width="100" height="135" viewBox="0 0 100 135" fill="none" xmlns="http://www.w3.org/2000/svg">
<circle cx="50" cy="67" r="50" fill="#00BFA6"/>
<path d="M72.3636 55.5682L59.0682 56.3864C58.8409 55.25 58.3523 54.2273 57.6023 53.3182C56.8523 52.3864 55.8636 51.6477 54.6364 51.1023C53.4318 50.5341 51.9886 50.25 50.3068 50.25C48.0568 50.25 46.1591 50.7273 44.6136 51.6818C43.0682 52.6136 42.2955 53.8636 42.2955 55.4318C42.2955 56.6818 42.7955 57.7386 43.7955 58.6023C44.7955 59.4659 46.5114 60.1591 48.9432 60.6818L58.4205 62.5909C63.5114 63.6364 67.3068 65.3182 69.8068 67.6364C72.3068 69.9545 73.5568 73 73.5568 76.7727C73.5568 80.2045 72.5455 83.2159 70.5227 85.8068C68.5227 88.3977 65.7727 90.4205 62.2727 91.875C58.7955 93.3068 54.7841 94.0227 50.2386 94.0227C43.3068 94.0227 37.7841 92.5795 33.6705 89.6932C29.5795 86.7841 27.1818 82.8295 26.4773 77.8295L40.7614 77.0795C41.1932 79.1932 42.2386 80.8068 43.8977 81.9205C45.5568 83.0114 47.6818 83.5568 50.2727 83.5568C52.8182 83.5568 54.8636 83.0682 56.4091 82.0909C57.9773 81.0909 58.7727 79.8068 58.7955 78.2386C58.7727 76.9205 58.2159 75.8409 57.125 75C56.0341 74.1364 54.3523 73.4773 52.0795 73.0227L43.0114 71.2159C37.8977 70.1932 34.0909 68.4205 31.5909 65.8977C29.1136 63.375 27.875 60.1591 27.875 56.25C27.875 52.8864 28.7841 49.9886 30.6023 47.5568C32.4432 45.125 35.0227 43.25 38.3409 41.9318C41.6818 40.6136 45.5909 39.9545 50.0682 39.9545C56.6818 39.9545 61.8864 41.3523 65.6818 44.1477C69.5 46.9432 71.7273 50.75 72.3636 55.5682Z" fill="#3F3D56"/>
</svg>
